
ungtae<svg width="30" height="40" viewBox="0 0 30 40" fill="none" xmlns="http://www.w3.org/2000/svg">
<path d="M21.7102 18.4487V33.3038C15.2656 35.4862 8.37832 37.819 1.93724 40L0 38.7669V23.8905L3.94719 22.5534C3.94719 22.5534 5.90438 23.7986 5.90581 23.8V33.9381C8.88651 32.9288 12.828 31.5939 15.803 30.5861V18.5378L19.7502 17.2014C19.7502 17.2014 21.7074 18.4466 21.7095 18.448L21.7102 18.4487Z" fill="#080708"/>
<path d="M7.58005 21.5513V6.69624C14.0247 4.51382 20.912 2.181 27.353 0L29.2903 1.23305V16.1095L25.3431 17.4466C25.3431 17.4466 23.3859 16.2014 23.3845 16.2V6.0619C20.4038 7.07115 16.4623 8.40612 13.4873 9.41394V21.4622L9.5401 22.7986C9.5401 22.7986 7.5829 21.5534 7.58076 21.552L7.58005 21.5513Z" fill="#080708"/>
</svg>
